<?xml version="1.0" standalone="no"?>
<svg width="480" height="160" viewBox="-8 -86 480 160 " xmlns="http://www.w3.org/2000/svg" version="1.1">
<defs><style type="text/css">.terminal_rect{fill:rgb(206,255,206);stroke:black;stroke-width:2;}.terminal_text{fill:black;font-family:Verdana,Sans-serif;text-anchor:middle;font-size:14px;}.symbol_rect{fill:rgb(206,255,206);stroke:black;stroke-width:2;}.symbol_text{fill:black;font-family:Verdana,Sans-serif;font-weight:bold;font-style:italic;text-anchor:middle;font-size:14px;}.path{fill:none;stroke:black;stroke-width:2;}.rule_text{fill:black;font-family:Verdana,Sans-serif;font-weight:bold;font-size:14px;}.rule_path_edge{fill:none;stroke:black;stroke-width:3;}</style></defs>
<text class="rule_text" x="0" y="-64" >expression:</text>
<rect class="symbol_rect" x="30" y="-14" width="56" height="28" rx="1" />
<text class="symbol_text" x="58" y="4" >term</text>
<rect class="terminal_rect" x="158" y="-14" width="26" height="28" rx="28" />
<text class="terminal_text" x="171" y="4" >|</text>
<rect class="symbol_rect" x="208" y="-14" width="56" height="28" rx="1" />
<text class="symbol_text" x="236" y="4" >term</text>
<path class="path" d="M184 0 L208 0" />
<path class="path" d="M158 0 L134 0 M146 0 Q134 0 134 -12 L134 -36 Q134 -48 146 -48 L276 -48 Q288 -48 288 -36 L288 -12 Q288 0 276 0 L264 0 L288 0" />
<path class="path" d="M158 0 L110 0 Q122 0 122 12 L122 24 Q122 36 134 36 L288 36 Q300 36 300 24 L300 12 Q300 0 312 0 L264 0 M110 0 L134 0 M288 0 L312 0" />
<rect class="terminal_rect" x="372" y="-14" width="26" height="28" rx="28" />
<text class="terminal_text" x="385" y="4" >|</text>
<path class="path" d="M372 44 L388 44" />
<path class="path" d="M336 0 L372 0 M336 0 Q348 0 348 12 M434 0 L398 0 M434 0 Q422 0 422 12" />
<path class="path" d="M360 44 L372 44 M360 44 Q348 44 348 32 L348 12 M410 44 L388 44 M410 44 Q422 44 422 32 L422 12" />
<path class="path" d="M86 0 L110 0" />
<path class="path" d="M312 0 L336 0" />
<path class="path" d="M0 0 L30 0 M464 0 L434 0" />
<path class="rule_path_edge" d="M0 -6 L0 6 M464 -6 L464 6" />
</svg>
