<?xml version="1.0" standalone="no"?>
<svg width="2020" height="188" viewBox="-8 -86 2020 188 " xmlns="http://www.w3.org/2000/svg" version="1.1">
<defs><style type="text/css">.terminal_rect{fill:rgb(206,255,206);stroke:black;stroke-width:2;}.terminal_text{fill:black;font-family:Verdana,Sans-serif;text-anchor:middle;font-size:14px;}.symbol_rect{fill:rgb(206,255,206);stroke:black;stroke-width:2;}.symbol_text{fill:black;font-family:Verdana,Sans-serif;font-weight:bold;font-style:italic;text-anchor:middle;font-size:14px;}.path{fill:none;stroke:black;stroke-width:2;}.rule_text{fill:black;font-family:Verdana,Sans-serif;font-weight:bold;font-size:14px;}.rule_path_edge{fill:none;stroke:black;stroke-width:3;}</style></defs>
<text class="rule_text" x="0" y="-64" >block:</text>
<rect class="terminal_rect" x="66" y="-14" width="66" height="28" rx="28" />
<text class="terminal_text" x="99" y="4" >const</text>
<rect class="symbol_rect" x="156" y="-14" width="66" height="28" rx="1" />
<text class="symbol_text" x="189" y="4" >ident</text>
<rect class="terminal_rect" x="246" y="-14" width="26" height="28" rx="28" />
<text class="terminal_text" x="259" y="4" >=</text>
<rect class="symbol_rect" x="296" y="-14" width="76" height="28" rx="1" />
<text class="symbol_text" x="334" y="4" >number</text>
<rect class="terminal_rect" x="444" y="-14" width="26" height="28" rx="28" />
<text class="terminal_text" x="457" y="4" >,</text>
<rect class="symbol_rect" x="494" y="-14" width="66" height="28" rx="1" />
<text class="symbol_text" x="527" y="4" >ident</text>
<rect class="terminal_rect" x="584" y="-14" width="26" height="28" rx="28" />
<text class="terminal_text" x="597" y="4" >=</text>
<rect class="symbol_rect" x="634" y="-14" width="76" height="28" rx="1" />
<text class="symbol_text" x="672" y="4" >number</text>
<path class="path" d="M470 0 L494 0" />
<path class="path" d="M560 0 L584 0" />
<path class="path" d="M610 0 L634 0" />
<path class="path" d="M444 0 L420 0 M432 0 Q420 0 420 -12 L420 -36 Q420 -48 432 -48 L722 -48 Q734 -48 734 -36 L734 -12 Q734 0 722 0 L710 0 L734 0" />
<path class="path" d="M444 0 L396 0 Q408 0 408 12 L408 24 Q408 36 420 36 L734 36 Q746 36 746 24 L746 12 Q746 0 758 0 L710 0 M396 0 L420 0 M734 0 L758 0" />
<rect class="terminal_rect" x="782" y="-14" width="26" height="28" rx="28" />
<text class="terminal_text" x="795" y="4" >;</text>
<path class="path" d="M132 0 L156 0" />
<path class="path" d="M222 0 L246 0" />
<path class="path" d="M272 0 L296 0" />
<path class="path" d="M372 0 L396 0" />
<path class="path" d="M758 0 L782 0" />
<path class="path" d="M66 72 L82 72" />
<path class="path" d="M30 0 L66 0 M30 0 Q42 0 42 12 M844 0 L808 0 M844 0 Q832 0 832 12" />
<path class="path" d="M54 72 L66 72 M54 72 Q42 72 42 60 L42 12 M820 72 L82 72 M820 72 Q832 72 832 60 L832 12" />
<rect class="terminal_rect" x="904" y="-14" width="46" height="28" rx="28" />
<text class="terminal_text" x="927" y="4" >var</text>
<rect class="symbol_rect" x="974" y="-14" width="66" height="28" rx="1" />
<text class="symbol_text" x="1007" y="4" >ident</text>
<rect class="terminal_rect" x="1112" y="-14" width="26" height="28" rx="28" />
<text class="terminal_text" x="1125" y="4" >,</text>
<rect class="symbol_rect" x="1162" y="-14" width="66" height="28" rx="1" />
<text class="symbol_text" x="1195" y="4" >ident</text>
<path class="path" d="M1138 0 L1162 0" />
<path class="path" d="M1112 0 L1088 0 M1100 0 Q1088 0 1088 -12 L1088 -36 Q1088 -48 1100 -48 L1240 -48 Q1252 -48 1252 -36 L1252 -12 Q1252 0 1240 0 L1228 0 L1252 0" />
<path class="path" d="M1112 0 L1064 0 Q1076 0 1076 12 L1076 24 Q1076 36 1088 36 L1252 36 Q1264 36 1264 24 L1264 12 Q1264 0 1276 0 L1228 0 M1064 0 L1088 0 M1252 0 L1276 0" />
<rect class="terminal_rect" x="1300" y="-14" width="26" height="28" rx="28" />
<text class="terminal_text" x="1313" y="4" >;</text>
<path class="path" d="M950 0 L974 0" />
<path class="path" d="M1040 0 L1064 0" />
<path class="path" d="M1276 0 L1300 0" />
<path class="path" d="M904 72 L920 72" />
<path class="path" d="M868 0 L904 0 M868 0 Q880 0 880 12 M1362 0 L1326 0 M1362 0 Q1350 0 1350 12" />
<path class="path" d="M892 72 L904 72 M892 72 Q880 72 880 60 L880 12 M1338 72 L920 72 M1338 72 Q1350 72 1350 60 L1350 12" />
<rect class="terminal_rect" x="1422" y="-14" width="106" height="28" rx="28" />
<text class="terminal_text" x="1475" y="4" >procedure</text>
<rect class="symbol_rect" x="1552" y="-14" width="66" height="28" rx="1" />
<text class="symbol_text" x="1585" y="4" >ident</text>
<rect class="terminal_rect" x="1642" y="-14" width="26" height="28" rx="28" />
<text class="terminal_text" x="1655" y="4" >;</text>
<rect class="symbol_rect" x="1692" y="-14" width="66" height="28" rx="1" />
<text class="symbol_text" x="1725" y="4" >block</text>
<rect class="terminal_rect" x="1782" y="-14" width="26" height="28" rx="28" />
<text class="terminal_text" x="1795" y="4" >;</text>
<path class="path" d="M1528 0 L1552 0" />
<path class="path" d="M1618 0 L1642 0" />
<path class="path" d="M1668 0 L1692 0" />
<path class="path" d="M1758 0 L1782 0" />
<path class="path" d="M1422 44 L1438 44" />
<path class="path" d="M1386 0 L1422 0 M1386 0 Q1398 0 1398 12 M1844 0 L1808 0 M1844 0 Q1832 0 1832 12" />
<path class="path" d="M1410 44 L1422 44 M1410 44 Q1398 44 1398 32 L1398 12 M1820 44 L1438 44 M1820 44 Q1832 44 1832 32 L1832 12" />
<rect class="symbol_rect" x="1868" y="-14" width="106" height="28" rx="1" />
<text class="symbol_text" x="1921" y="4" >statement</text>
<path class="path" d="M844 0 L868 0" />
<path class="path" d="M1362 0 L1386 0" />
<path class="path" d="M1844 0 L1868 0" />
<path class="path" d="M0 0 L30 0 M2004 0 L1974 0" />
<path class="rule_path_edge" d="M0 -6 L0 6 M2004 -6 L2004 6" />
</svg>
