<?xml version="1.0" standalone="no"?>
<svg width="536" height="352" viewBox="-8 -58 536 352 " xmlns="http://www.w3.org/2000/svg" version="1.1">
<defs><style type="text/css">.terminal_rect{fill:rgb(206,255,206);stroke:black;stroke-width:2;}.terminal_text{fill:black;font-family:Verdana,Sans-serif;text-anchor:middle;font-size:14px;}.symbol_rect{fill:rgb(206,255,206);stroke:black;stroke-width:2;}.symbol_text{fill:black;font-family:Verdana,Sans-serif;font-weight:bold;font-style:italic;text-anchor:middle;font-size:14px;}.path{fill:none;stroke:black;stroke-width:2;}.rule_text{fill:black;font-family:Verdana,Sans-serif;font-weight:bold;font-size:14px;}.rule_path_edge{fill:none;stroke:black;stroke-width:3;}</style></defs>
<text class="rule_text" x="0" y="-36" >condition:</text>
<rect class="terminal_rect" x="66" y="-14" width="46" height="28" rx="28" />
<text class="terminal_text" x="89" y="4" >odd</text>
<rect class="symbol_rect" x="136" y="-14" width="116" height="28" rx="1" />
<text class="symbol_text" x="194" y="4" >expression</text>
<path class="path" d="M112 0 L136 0" />
<rect class="symbol_rect" x="66" y="30" width="116" height="28" rx="1" />
<text class="symbol_text" x="124" y="48" >expression</text>
<rect class="terminal_rect" x="242" y="30" width="26" height="28" rx="28" />
<text class="terminal_text" x="255" y="48" >=</text>
<rect class="terminal_rect" x="242" y="74" width="26" height="28" rx="28" />
<text class="terminal_text" x="255" y="92" >#</text>
<rect class="terminal_rect" x="242" y="118" width="26" height="28" rx="28" />
<text class="terminal_text" x="255" y="136" >&lt;</text>
<rect class="terminal_rect" x="242" y="162" width="36" height="28" rx="28" />
<text class="terminal_text" x="260" y="180" >&lt;=</text>
<rect class="terminal_rect" x="242" y="206" width="26" height="28" rx="28" />
<text class="terminal_text" x="255" y="224" >&gt;</text>
<rect class="terminal_rect" x="242" y="250" width="36" height="28" rx="28" />
<text class="terminal_text" x="260" y="268" >&gt;=</text>
<path class="path" d="M206 44 L242 44 M206 44 Q218 44 218 56 M314 44 L268 44 M314 44 Q302 44 302 56" />
<path class="path" d="M230 88 L242 88 M230 88 Q218 88 218 76 L218 56 M290 88 L268 88 M290 88 Q302 88 302 76 L302 56" />
<path class="path" d="M230 132 L242 132 M230 132 Q218 132 218 120 L218 76 M290 132 L268 132 M290 132 Q302 132 302 120 L302 76" />
<path class="path" d="M230 176 L242 176 M230 176 Q218 176 218 164 L218 120 M290 176 L278 176 M290 176 Q302 176 302 164 L302 120" />
<path class="path" d="M230 220 L242 220 M230 220 Q218 220 218 208 L218 164 M290 220 L268 220 M290 220 Q302 220 302 208 L302 164" />
<path class="path" d="M230 264 L242 264 M230 264 Q218 264 218 252 L218 208 M290 264 L278 264 M290 264 Q302 264 302 252 L302 208" />
<rect class="symbol_rect" x="338" y="30" width="116" height="28" rx="1" />
<text class="symbol_text" x="396" y="48" >expression</text>
<path class="path" d="M182 44 L206 44" />
<path class="path" d="M314 44 L338 44" />
<path class="path" d="M30 0 L66 0 M30 0 Q42 0 42 12 M490 0 L252 0 M490 0 Q478 0 478 12" />
<path class="path" d="M54 44 L66 44 M54 44 Q42 44 42 32 L42 12 M466 44 L454 44 M466 44 Q478 44 478 32 L478 12" />
<path class="path" d="M0 0 L30 0 M520 0 L490 0" />
<path class="rule_path_edge" d="M0 -6 L0 6 M520 -6 L520 6" />
</svg>
