<?xml version="1.0" standalone="no"?>
<svg width="364" height="176" viewBox="-8 -58 364 176 " xmlns="http://www.w3.org/2000/svg" version="1.1">
<defs><style type="text/css">.terminal_rect{fill:rgb(206,255,206);stroke:black;stroke-width:2;}.terminal_text{fill:black;font-family:Verdana,Sans-serif;text-anchor:middle;font-size:14px;}.symbol_rect{fill:rgb(206,255,206);stroke:black;stroke-width:2;}.symbol_text{fill:black;font-family:Verdana,Sans-serif;font-weight:bold;font-style:italic;text-anchor:middle;font-size:14px;}.path{fill:none;stroke:black;stroke-width:2;}.rule_text{fill:black;font-family:Verdana,Sans-serif;font-weight:bold;font-size:14px;}.rule_path_edge{fill:none;stroke:black;stroke-width:3;}</style></defs>
<text class="rule_text" x="0" y="-36" >factor:</text>
<rect class="symbol_rect" x="66" y="-14" width="66" height="28" rx="1" />
<text class="symbol_text" x="99" y="4" >ident</text>
<rect class="symbol_rect" x="66" y="30" width="76" height="28" rx="1" />
<text class="symbol_text" x="104" y="48" >number</text>
<rect class="terminal_rect" x="66" y="74" width="26" height="28" rx="28" />
<text class="terminal_text" x="79" y="92" >(</text>
<rect class="symbol_rect" x="116" y="74" width="116" height="28" rx="1" />
<text class="symbol_text" x="174" y="92" >expression</text>
<rect class="terminal_rect" x="256" y="74" width="26" height="28" rx="28" />
<text class="terminal_text" x="269" y="92" >)</text>
<path class="path" d="M92 88 L116 88" />
<path class="path" d="M232 88 L256 88" />
<path class="path" d="M30 0 L66 0 M30 0 Q42 0 42 12 M318 0 L132 0 M318 0 Q306 0 306 12" />
<path class="path" d="M54 44 L66 44 M54 44 Q42 44 42 32 L42 12 M294 44 L142 44 M294 44 Q306 44 306 32 L306 12" />
<path class="path" d="M54 88 L66 88 M54 88 Q42 88 42 76 L42 32 M294 88 L282 88 M294 88 Q306 88 306 76 L306 32" />
<path class="path" d="M0 0 L30 0 M348 0 L318 0" />
<path class="rule_path_edge" d="M0 -6 L0 6 M348 -6 L348 6" />
</svg>
