<?xml version="1.0" standalone="no"?>
<svg width="690" height="364" viewBox="-8 -58 690 364 " xmlns="http://www.w3.org/2000/svg" version="1.1">
<defs><style type="text/css">.terminal_rect{fill:rgb(206,255,206);stroke:black;stroke-width:2;}.terminal_text{fill:black;font-family:Verdana,Sans-serif;text-anchor:middle;font-size:14px;}.symbol_rect{fill:rgb(206,255,206);stroke:black;stroke-width:2;}.symbol_text{fill:black;font-family:Verdana,Sans-serif;font-weight:bold;font-style:italic;text-anchor:middle;font-size:14px;}.path{fill:none;stroke:black;stroke-width:2;}.rule_text{fill:black;font-family:Verdana,Sans-serif;font-weight:bold;font-size:14px;}.rule_path_edge{fill:none;stroke:black;stroke-width:3;}</style></defs>
<text class="rule_text" x="0" y="-36" >statement:</text>
<rect class="symbol_rect" x="66" y="-14" width="66" height="28" rx="1" />
<text class="symbol_text" x="99" y="4" >ident</text>
<rect class="terminal_rect" x="156" y="-14" width="36" height="28" rx="28" />
<text class="terminal_text" x="174" y="4" >:=</text>
<rect class="symbol_rect" x="216" y="-14" width="116" height="28" rx="1" />
<text class="symbol_text" x="274" y="4" >expression</text>
<path class="path" d="M132 0 L156 0" />
<path class="path" d="M192 0 L216 0" />
<rect class="terminal_rect" x="66" y="30" width="56" height="28" rx="28" />
<text class="terminal_text" x="94" y="48" >call</text>
<rect class="symbol_rect" x="146" y="30" width="66" height="28" rx="1" />
<text class="symbol_text" x="179" y="48" >ident</text>
<path class="path" d="M122 44 L146 44" />
<rect class="terminal_rect" x="66" y="102" width="66" height="28" rx="28" />
<text class="terminal_text" x="99" y="120" >begin</text>
<rect class="symbol_rect" x="156" y="102" width="106" height="28" rx="1" />
<text class="symbol_text" x="209" y="120" >statement</text>
<rect class="terminal_rect" x="334" y="102" width="26" height="28" rx="28" />
<text class="terminal_text" x="347" y="120" >;</text>
<rect class="symbol_rect" x="384" y="102" width="106" height="28" rx="1" />
<text class="symbol_text" x="437" y="120" >statement</text>
<path class="path" d="M360 116 L384 116" />
<path class="path" d="M334 116 L310 116 M322 116 Q310 116 310 104 L310 80 Q310 68 322 68 L502 68 Q514 68 514 80 L514 104 Q514 116 502 116 L490 116 L514 116" />
<path class="path" d="M334 116 L286 116 Q298 116 298 128 L298 140 Q298 152 310 152 L514 152 Q526 152 526 140 L526 128 Q526 116 538 116 L490 116 M286 116 L310 116 M514 116 L538 116" />
<rect class="terminal_rect" x="562" y="102" width="46" height="28" rx="28" />
<text class="terminal_text" x="585" y="120" >end</text>
<path class="path" d="M132 116 L156 116" />
<path class="path" d="M262 116 L286 116" />
<path class="path" d="M538 116 L562 116" />
<rect class="terminal_rect" x="66" y="174" width="36" height="28" rx="28" />
<text class="terminal_text" x="84" y="192" >if</text>
<rect class="symbol_rect" x="126" y="174" width="106" height="28" rx="1" />
<text class="symbol_text" x="179" y="192" >condition</text>
<rect class="terminal_rect" x="256" y="174" width="56" height="28" rx="28" />
<text class="terminal_text" x="284" y="192" >then</text>
<rect class="symbol_rect" x="336" y="174" width="106" height="28" rx="1" />
<text class="symbol_text" x="389" y="192" >statement</text>
<path class="path" d="M102 188 L126 188" />
<path class="path" d="M232 188 L256 188" />
<path class="path" d="M312 188 L336 188" />
<rect class="terminal_rect" x="66" y="218" width="66" height="28" rx="28" />
<text class="terminal_text" x="99" y="236" >while</text>
<rect class="symbol_rect" x="156" y="218" width="106" height="28" rx="1" />
<text class="symbol_text" x="209" y="236" >condition</text>
<rect class="terminal_rect" x="286" y="218" width="36" height="28" rx="28" />
<text class="terminal_text" x="304" y="236" >do</text>
<rect class="symbol_rect" x="346" y="218" width="106" height="28" rx="1" />
<text class="symbol_text" x="399" y="236" >statement</text>
<path class="path" d="M132 232 L156 232" />
<path class="path" d="M262 232 L286 232" />
<path class="path" d="M322 232 L346 232" />
<path class="path" d="M66 276 L82 276" />
<path class="path" d="M30 0 L66 0 M30 0 Q42 0 42 12 M644 0 L332 0 M644 0 Q632 0 632 12" />
<path class="path" d="M54 44 L66 44 M54 44 Q42 44 42 32 L42 12 M620 44 L212 44 M620 44 Q632 44 632 32 L632 12" />
<path class="path" d="M54 116 L66 116 M54 116 Q42 116 42 104 L42 32 M620 116 L608 116 M620 116 Q632 116 632 104 L632 32" />
<path class="path" d="M54 188 L66 188 M54 188 Q42 188 42 176 L42 104 M620 188 L442 188 M620 188 Q632 188 632 176 L632 104" />
<path class="path" d="M54 232 L66 232 M54 232 Q42 232 42 220 L42 176 M620 232 L452 232 M620 232 Q632 232 632 220 L632 176" />
<path class="path" d="M54 276 L66 276 M54 276 Q42 276 42 264 L42 220 M620 276 L82 276 M620 276 Q632 276 632 264 L632 220" />
<path class="path" d="M0 0 L30 0 M674 0 L644 0" />
<path class="rule_path_edge" d="M0 -6 L0 6 M674 -6 L674 6" />
</svg>
