<?xml version="1.0" standalone="no"?>
<svg width="470" height="188" viewBox="-8 -86 470 188 " xmlns="http://www.w3.org/2000/svg" version="1.1">
<defs><style type="text/css">.terminal_rect{fill:rgb(206,255,206);stroke:black;stroke-width:2;}.terminal_text{fill:black;font-family:Verdana,Sans-serif;text-anchor:middle;font-size:14px;}.symbol_rect{fill:rgb(206,255,206);stroke:black;stroke-width:2;}.symbol_text{fill:black;font-family:Verdana,Sans-serif;font-weight:bold;font-style:italic;text-anchor:middle;font-size:14px;}.path{fill:none;stroke:black;stroke-width:2;}.rule_text{fill:black;font-family:Verdana,Sans-serif;font-weight:bold;font-size:14px;}.rule_path_edge{fill:none;stroke:black;stroke-width:3;}</style></defs>
<text class="rule_text" x="0" y="-64" >term:</text>
<rect class="symbol_rect" x="30" y="-14" width="76" height="28" rx="1" />
<text class="symbol_text" x="68" y="4" >factor</text>
<rect class="terminal_rect" x="214" y="-14" width="26" height="28" rx="28" />
<text class="terminal_text" x="227" y="4" >*</text>
<rect class="terminal_rect" x="214" y="30" width="26" height="28" rx="28" />
<text class="terminal_text" x="227" y="48" >/</text>
<path class="path" d="M178 0 L214 0 M178 0 Q190 0 190 12 M276 0 L240 0 M276 0 Q264 0 264 12" />
<path class="path" d="M202 44 L214 44 M202 44 Q190 44 190 32 L190 12 M252 44 L240 44 M252 44 Q264 44 264 32 L264 12" />
<rect class="symbol_rect" x="300" y="-14" width="76" height="28" rx="1" />
<text class="symbol_text" x="338" y="4" >factor</text>
<path class="path" d="M276 0 L300 0" />
<path class="path" d="M178 0 L154 0 M166 0 Q154 0 154 -12 L154 -36 Q154 -48 166 -48 L388 -48 Q400 -48 400 -36 L400 -12 Q400 0 388 0 L376 0 L400 0" />
<path class="path" d="M178 0 L130 0 Q142 0 142 12 L142 68 Q142 80 154 80 L400 80 Q412 80 412 68 L412 12 Q412 0 424 0 L376 0 M130 0 L154 0 M400 0 L424 0" />
<path class="path" d="M106 0 L130 0" />
<path class="path" d="M0 0 L30 0 M454 0 L424 0" />
<path class="rule_path_edge" d="M0 -6 L0 6 M454 -6 L454 6" />
</svg>
