<?xml version="1.0" standalone="no"?>
<svg width="224" height="352" viewBox="-8 -58 224 352 " xmlns="http://www.w3.org/2000/svg" version="1.1">
<defs><style type="text/css">.terminal_rect{fill:rgb(206,255,206);stroke:black;stroke-width:2;}.terminal_text{fill:black;font-family:Verdana,Sans-serif;text-anchor:middle;font-size:14px;}.symbol_rect{fill:rgb(206,255,206);stroke:black;stroke-width:2;}.symbol_text{fill:black;font-family:Verdana,Sans-serif;font-weight:bold;font-style:italic;text-anchor:middle;font-size:14px;}.path{fill:none;stroke:black;stroke-width:2;}.rule_text{fill:black;font-family:Verdana,Sans-serif;font-weight:bold;font-size:14px;}.rule_path_edge{fill:none;stroke:black;stroke-width:3;}</style></defs>
<text class="rule_text" x="0" y="-36" >value:</text>
<rect class="symbol_rect" x="66" y="-14" width="76" height="28" rx="1" />
<text class="symbol_text" x="104" y="4" >string</text>
<rect class="symbol_rect" x="66" y="30" width="76" height="28" rx="1" />
<text class="symbol_text" x="104" y="48" >number</text>
<rect class="symbol_rect" x="66" y="74" width="76" height="28" rx="1" />
<text class="symbol_text" x="104" y="92" >object</text>
<rect class="symbol_rect" x="66" y="118" width="66" height="28" rx="1" />
<text class="symbol_text" x="99" y="136" >array</text>
<rect class="terminal_rect" x="66" y="162" width="56" height="28" rx="28" />
<text class="terminal_text" x="94" y="180" >true</text>
<rect class="terminal_rect" x="66" y="206" width="66" height="28" rx="28" />
<text class="terminal_text" x="99" y="224" >false</text>
<rect class="terminal_rect" x="66" y="250" width="56" height="28" rx="28" />
<text class="terminal_text" x="94" y="268" >null</text>
<path class="path" d="M30 0 L66 0 M30 0 Q42 0 42 12 M178 0 L142 0 M178 0 Q166 0 166 12" />
<path class="path" d="M54 44 L66 44 M54 44 Q42 44 42 32 L42 12 M154 44 L142 44 M154 44 Q166 44 166 32 L166 12" />
<path class="path" d="M54 88 L66 88 M54 88 Q42 88 42 76 L42 32 M154 88 L142 88 M154 88 Q166 88 166 76 L166 32" />
<path class="path" d="M54 132 L66 132 M54 132 Q42 132 42 120 L42 76 M154 132 L132 132 M154 132 Q166 132 166 120 L166 76" />
<path class="path" d="M54 176 L66 176 M54 176 Q42 176 42 164 L42 120 M154 176 L122 176 M154 176 Q166 176 166 164 L166 120" />
<path class="path" d="M54 220 L66 220 M54 220 Q42 220 42 208 L42 164 M154 220 L132 220 M154 220 Q166 220 166 208 L166 164" />
<path class="path" d="M54 264 L66 264 M54 264 Q42 264 42 252 L42 208 M154 264 L122 264 M154 264 Q166 264 166 252 L166 208" />
<path class="path" d="M0 0 L30 0 M208 0 L178 0" />
<path class="rule_path_edge" d="M0 -6 L0 6 M208 -6 L208 6" />
</svg>
