<?xml version="1.0" standalone="no"?>
<svg width="486" height="176" viewBox="-8 -58 486 176 " xmlns="http://www.w3.org/2000/svg" version="1.1">
<defs><style type="text/css">.terminal_rect{fill:rgb(206,255,206);stroke:black;stroke-width:2;}.terminal_text{fill:black;font-family:Verdana,Sans-serif;text-anchor:middle;font-size:14px;}.symbol_rect{fill:rgb(206,255,206);stroke:black;stroke-width:2;}.symbol_text{fill:black;font-family:Verdana,Sans-serif;font-weight:bold;font-style:italic;text-anchor:middle;font-size:14px;}.path{fill:none;stroke:black;stroke-width:2;}.rule_text{fill:black;font-family:Verdana,Sans-serif;font-weight:bold;font-size:14px;}.rule_path_edge{fill:none;stroke:black;stroke-width:3;}</style></defs>
<text class="rule_text" x="0" y="-36" >factor:</text>
<rect class="terminal_rect" x="66" y="-14" width="36" height="28" rx="28" />
<text class="terminal_text" x="84" y="4" >id</text>
<rect class="terminal_rect" x="66" y="30" width="56" height="28" rx="28" />
<text class="terminal_text" x="94" y="48" >text</text>
<rect class="terminal_rect" x="66" y="74" width="26" height="28" rx="28" />
<text class="terminal_text" x="79" y="92" >(</text>
<rect class="symbol_rect" x="116" y="74" width="116" height="28" rx="1" />
<text class="symbol_text" x="174" y="92" >expression</text>
<rect class="terminal_rect" x="256" y="74" width="26" height="28" rx="28" />
<text class="terminal_text" x="269" y="92" >)</text>
<path class="path" d="M92 88 L116 88" />
<path class="path" d="M232 88 L256 88" />
<path class="path" d="M30 0 L66 0 M30 0 Q42 0 42 12 M318 0 L102 0 M318 0 Q306 0 306 12" />
<path class="path" d="M54 44 L66 44 M54 44 Q42 44 42 32 L42 12 M294 44 L122 44 M294 44 Q306 44 306 32 L306 12" />
<path class="path" d="M54 88 L66 88 M54 88 Q42 88 42 76 L42 32 M294 88 L282 88 M294 88 Q306 88 306 76 L306 32" />
<rect class="terminal_rect" x="378" y="-14" width="26" height="28" rx="28" />
<text class="terminal_text" x="391" y="4" >+</text>
<rect class="terminal_rect" x="378" y="30" width="26" height="28" rx="28" />
<text class="terminal_text" x="391" y="48" >*</text>
<path class="path" d="M378 88 L394 88" />
<path class="path" d="M342 0 L378 0 M342 0 Q354 0 354 12 M440 0 L404 0 M440 0 Q428 0 428 12" />
<path class="path" d="M366 44 L378 44 M366 44 Q354 44 354 32 L354 12 M416 44 L404 44 M416 44 Q428 44 428 32 L428 12" />
<path class="path" d="M366 88 L378 88 M366 88 Q354 88 354 76 L354 32 M416 88 L394 88 M416 88 Q428 88 428 76 L428 32" />
<path class="path" d="M318 0 L342 0" />
<path class="path" d="M0 0 L30 0 M470 0 L440 0" />
<path class="rule_path_edge" d="M0 -6 L0 6 M470 -6 L470 6" />
</svg>
