<?xml version="1.0" standalone="no"?>
<svg width="394" height="132" viewBox="-8 -58 394 132 " xmlns="http://www.w3.org/2000/svg" version="1.1">
<defs><style type="text/css">.terminal_rect{fill:rgb(206,255,206);stroke:black;stroke-width:2;}.terminal_text{fill:black;font-family:Verdana,Sans-serif;text-anchor:middle;font-size:14px;}.symbol_rect{fill:rgb(206,255,206);stroke:black;stroke-width:2;}.symbol_text{fill:black;font-family:Verdana,Sans-serif;font-weight:bold;font-style:italic;text-anchor:middle;font-size:14px;}.path{fill:none;stroke:black;stroke-width:2;}.rule_text{fill:black;font-family:Verdana,Sans-serif;font-weight:bold;font-size:14px;}.rule_path_edge{fill:none;stroke:black;stroke-width:3;}</style></defs>
<text class="rule_text" x="0" y="-36" >rule:</text>
<rect class="terminal_rect" x="30" y="-14" width="36" height="28" rx="28" />
<text class="terminal_text" x="48" y="4" >id</text>
<rect class="terminal_rect" x="126" y="-14" width="46" height="28" rx="28" />
<text class="terminal_text" x="149" y="4" >::=</text>
<rect class="terminal_rect" x="126" y="30" width="36" height="28" rx="28" />
<text class="terminal_text" x="144" y="48" >-&gt;</text>
<path class="path" d="M90 0 L126 0 M90 0 Q102 0 102 12 M208 0 L172 0 M208 0 Q196 0 196 12" />
<path class="path" d="M114 44 L126 44 M114 44 Q102 44 102 32 L102 12 M184 44 L162 44 M184 44 Q196 44 196 32 L196 12" />
<rect class="symbol_rect" x="232" y="-14" width="116" height="28" rx="1" />
<text class="symbol_text" x="290" y="4" >expression</text>
<path class="path" d="M66 0 L90 0" />
<path class="path" d="M208 0 L232 0" />
<path class="path" d="M0 0 L30 0 M378 0 L348 0" />
<path class="rule_path_edge" d="M0 -6 L0 6 M378 -6 L378 6" />
</svg>
